# xmcd
#
# Track frame offsets:
# 150
# 15998
# 36345
# 50730
# 67626
# 83732
#
# Disc length: 1313 seconds
#
# Revision: 0
# Processed by: cddbd v1.4PL0 Copyright (c) Steve Scherf et al.
# Submitted via: Axialis_AX_CDPlayer 2.6
#
DISCID=3e051f06
DTITLE=ATruPrncss - Akia
DYEAR=1900
DGENRE=
TTITLE0=California (featuring K'ream)
TTITLE1=I Still Miss You
TTITLE2=Little Bit
TTITLE3=Agenda
TTITLE4=Pink Panties
TTITLE5=California (Remix featuring  K'ream)
EXTD=
EXTT0=
EXTT1=
EXTT2=
EXTT3=
EXTT4=
EXTT5=
PLAYORDER=
